<?xml version="1.0" standalone="no"?><!DOCTYPE svg PUBLIC "-//W3C//DTD SVG 1.1//EN" "http://www.w3.org/Graphics/SVG/1.1/DTD/svg11.dtd"><svg t="1579057181684" class="icon" viewBox="0 0 1024 1024" version="1.1" xmlns="http://www.w3.org/2000/svg" p-id="937" xmlns:xlink="http://www.w3.org/1999/xlink" width="200" height="200"><defs><style type="text/css"></style></defs><path d="M866.7 96H157.3c-17.8 0-32.2 14.4-32.2 32.2 0 17.8 14.4 32.2 32.2 32.2h709.5c17.8 0 32.2-14.4 32.2-32.2 0-17.8-14.4-32.2-32.3-32.2zM512 225c-16.5 0-33 6.3-45.6 18.9L169.9 540.3c-5.8 5.8-9.4 13.9-9.4 22.8s3.6 17 9.4 22.8c5.8 5.8 13.9 9.4 22.8 9.4s17-3.6 22.8-9.4l264.2-264.2v574c0 17.8 14.4 32.2 32.2 32.2 17.8 0 32.2-14.4 32.2-32.2v-574l264.2 264.2c5.8 5.8 13.9 9.4 22.8 9.4s17-3.6 22.8-9.4c5.8-5.8 9.4-13.9 9.4-22.8s-3.6-17-9.4-22.8L557.6 243.9C545 231.3 528.5 225 512 225z" p-id="938"></path></svg>